#!OML:ASF H:\Not Pregnant\Project 1\Capture day 1\Session 1\non-pregnant.ASF
:FULLY-SPECIFIED
:DEGREES
936
root -4.69063 15.4416 16.3962 -169.211 177.133 -174.677
lowerback -0.335015 -1.32693 -5.5824
upperback -8.35486 -2.17604 -2.07012
thorax -8.49596 -0.756231 1.07834
lowerneck 10.3018 -12.4619 -29.2435
upperneck -0.671683 -21.8067 37.4922
head 6.35563 -11.9482 16.7508
rclavicle 8.44835e-016 -1.78906e-014
rhumerus -55.8566 0.121079 -87.5924
rradius 44.827
rwrist 3.90856
rhand -25.6613 -6.07705
rfingers 7.12502
rthumb 0.8729 -36.055
lclavicle 8.44835e-016 -1.78906e-014
lhumerus -43.5348 -11.2389 95.0067
lradius 109.662
lwrist 34.9603
lhand -22.5663 -23.3318
lfingers 7.12502
lthumb 3.86192 6.61296
rfemur -49.6491 -2.54358 19.1357
rtibia 36.8593
rfoot -4.44408 17.2576
rtoes -19.6451
lfemur 12.8587 -1.07038 -28.4135
ltibia 13.0316
lfoot -15.3906 -16.3016
ltoes -33.3831
937
root -4.69891 15.4387 16.6559 -169.215 176.964 -175.128
lowerback -0.857666 -1.28032 -5.15216
upperback -8.46924 -2.05161 -1.94483
thorax -8.32519 -0.723317 0.951883
lowerneck 10.5767 -12.4139 -29.3677
upperneck -0.652435 -21.8017 37.3159
head 6.28956 -11.9637 16.7169
rclavicle 1.0138e-014 1.31198e-014
rhumerus -57.0851 -1.26696 -85.4311
rradius 40.5282
rwrist 5.12137
rhand -25.4568 -6.29714
rfingers 7.12502
rthumb 1.0704 -36.2742
lclavicle 1.0138e-014 1.31198e-014
lhumerus -43.6886 -11.4926 95.2336
lradius 112.426
lwrist 34.1039
lhand -22.4288 -23.722
lfingers 7.12502
lthumb 3.99467 6.22028
rfemur -49.0229 -2.0116 19.6727
rtibia 37.3887
rfoot -3.39208 17.5656
rtoes -16.2169
lfemur 13.2904 -1.5159 -27.8268
ltibia 13.6942
lfoot -13.8621 -17.1748
ltoes -33.8202
938
root -4.70844 15.4382 16.9131 -169.264 176.84 -175.587
lowerback -1.28031 -1.20228 -4.71854
upperback -8.59405 -1.89778 -1.82508
thorax -8.22617 -0.674136 0.819371
lowerneck 10.8798 -12.3645 -29.4862
upperneck -0.623923 -21.8043 37.1361
head 6.22276 -11.9851 16.6821
rclavicle 3.35449e-014 5.76476e-015
rhumerus -58.3243 -2.80929 -82.9017
rradius 36.1679
rwrist 6.5081
rhand -25.3408 -6.17584
rfingers 7.12502
rthumb 1.18245 -36.1523
lclavicle 3.35449e-014 5.76476e-015
lhumerus -43.7712 -11.7583 95.3996
lradius 115.138
lwrist 33.2649
lhand -22.3031 -24.0973
lfingers 7.12502
lthumb 4.11608 5.84264
rfemur -48.5447 -1.03164 19.9481
rtibia 38.2968
rfoot -2.83347 17.1949
rtoes -13.2919
lfemur 13.389 -1.94522 -27.2427
ltibia 14.9677
lfoot -12.1539 -18.1088
ltoes -33.9583
939
root -4.71821 15.4334 17.1641 -169.389 176.779 -176.068
lowerback -1.57077 -1.08787 -4.25723
upperback -8.70014 -1.70617 -1.71102
thorax -8.18538 -0.607352 0.667167
lowerneck 11.1767 -12.3253 -29.5873
upperneck -0.606175 -21.8189 36.9736
head 6.15997 -12.0125 16.6484
rclavicle 5.71506e-015 -1.78906e-015
rhumerus -59.5397 -4.57169 -79.8724
rradius 31.7751
rwrist 8.28081
rhand -25.2423 -6.01367
rfingers 7.12502
rthumb 1.27751 -35.9896
lclavicle 5.71506e-015 -1.78906e-015
lhumerus -43.761 -12.0316 95.5054
lradius 117.784
lwrist 32.4665
lhand -22.2116 -24.4411
lfingers 7.12502
lthumb 4.2044 5.49713
rfemur -48.1415 0.357245 20.0261
rtibia 39.4956
rfoot -2.88903 16.2115
rtoes -11.3297
lfemur 13.0632 -2.31197 -26.6485
ltibia 17.0824
lfoot -10.2517 -19.0782
ltoes -33.6507
940
root -4.72682 15.4192 17.4048 -169.592 176.807 -176.613
lowerback -1.70606 -0.935021 -3.7223
upperback -8.78735 -1.47108 -1.58977
thorax -8.21543 -0.523133 0.482747
lowerneck 11.4594 -12.2923 -29.6703
upperneck -0.609425 -21.836 36.838
head 6.09784 -12.041 16.622
rclavicle -1.54058e-015 -2.18663e-014
rhumerus -60.7827 -6.60973 -76.1522
rradius 27.4312
rwrist 10.7577
rhand -25.1013 -5.97235
rfingers 7.12502
rthumb 1.41372 -35.9474
lclavicle -1.54058e-015 -2.18663e-014
lhumerus -43.6749 -12.2956 95.555
lradius 120.352
lwrist 31.7625
lhand -22.2084 -24.7697
lfingers 7.12502
lthumb 4.20755 5.16849
rfemur -47.7527 2.00217 20.069
rtibia 40.8453
rfoot -3.55168 14.8695
rtoes -10.5941
lfemur 12.3255 -2.54189 -25.9996
ltibia 20.0085
lfoot -8.03966 -20.0438
ltoes -32.9012
